<svg viewBox="0 0 98 96" xmlns="http://www.w3.org/2000/svg" xml:space="preserve" style="fill-rule:evenodd;clip-rule:evenodd;stroke-linejoin:round;stroke-miterlimit:2"><path d="M624 133.332H179a43.689 43.689 0 0 0-16.869 2.546 43.673 43.673 0 0 0-28.798 39.121V621A47.004 47.004 0 0 0 179 666.667h445a44.676 44.676 0 0 0 30.65-14.13A44.66 44.66 0 0 0 666.667 621V174.999a40.984 40.984 0 0 0-12.35-30.034A41.005 41.005 0 0 0 624 133.332ZM300 578h-77.667V340.333H300V578Zm-37-273.668a39.326 39.326 0 0 1-29.296-11.61 39.337 39.337 0 0 1-11.371-29.39 39.34 39.34 0 0 1 11.596-29.644 39.338 39.338 0 0 1 29.738-11.356 39.347 39.347 0 0 1 15.861 2.743 39.33 39.33 0 0 1 24.805 38.257 39.325 39.325 0 0 1-11.595 29.645A39.321 39.321 0 0 1 263 304.332ZM578 578h-78V448c0-31-11-52.333-38.667-52.333a41.643 41.643 0 0 0-23.936 7.816 41.676 41.676 0 0 0-15.064 20.184 47.706 47.706 0 0 0-2.666 19V578H343V340.333h76.667v33.334a77.34 77.34 0 0 1 29.313-30.037 77.339 77.339 0 0 1 40.687-10.298C540 333.332 578 366.667 578 437.667V578Z" style="fill:#fff;fill-rule:nonzero" transform="matrix(.17998 0 0 .17998 -23.18 -23.989)"/></svg>