<svg viewBox="0 0 340 110" xmlns="http://www.w3.org/2000/svg" xml:space="preserve" style="fill-rule:evenodd;clip-rule:evenodd;stroke-linejoin:round;stroke-miterlimit:2"><path d="M0-67.181c.17-.803.299-1.707.299-2.667 0-.962-.134-1.92-.4-2.857.891.84 1.434 1.785 1.617 2.817l.002.007c-.145.806-.747 1.708-1.518 2.7m9.942 11.096c-1.459-.593-3.146-.906-4.898-.908-.692.002-1.379.052-2.042.149-.424-.943-.639-1.865-.639-2.743 0-2.173 1.225-4.047 2.478-5.781a50.89 50.89 0 0 1 1.277-1.68l.455-.586c.353-.459.71-.926 1.048-1.401.195-.274.387-.553.568-.837.231-.358.437-.707.632-1.069.268-.498.49-.984.668-1.469.211.91.318 1.824.318 2.728 0 .334-.013.641-.037.937a6.574 6.574 0 0 1-.286 1.472 9.486 9.486 0 0 1-.379 1.031c-.198.458-.433.896-.615 1.226-.177.324-.363.637-.55.945-.179.3-.359.586-.533.863-.701 1.115-1.305 2.079-1.34 3.055 0 .144.015.275.047.413.133.507.312 1.186 1.161 1.288.481-.015.806-.244 1.02-.677.135-.286.202-.608.202-.96 0-.457-.111-.937-.324-1.399.306-.541.709-1.178 1.098-1.796.224-.368.473-.787.716-1.242.901 1.635 1.357 3.162 1.355 4.547-.006 1.414-.464 2.69-1.4 3.894m-10.082.12a6.826 6.826 0 0 1-1.509-5.202c.183-1.584 1.233-3.011 2.384-4.455l.233-.297c1.043-1.326 2.122-2.698 2.141-4.344a2.803 2.803 0 0 0-.038-.508 12.337 12.337 0 0 1-.128-1.681c.013-1.703.461-3.047 1.399-4.158-.007.124-.009.244-.007.362.011 2.313 1.117 4.5 2.123 6.178-.485.698-1.014 1.377-1.57 2.093a65.633 65.633 0 0 0-1.312 1.725C2.178-64.306.813-62.189.811-59.587c0 .987.217 2.016.646 3.064-.555.149-1.089.336-1.597.558m22.585 2.777a3.814 3.814 0 0 0-1.275-1.727l6.298-16.248c.136-.019.274-.029.413-.029 1.006 0 1.997.48 2.72 1.318.595.687.943 1.542.986 2.419l-9.142 14.267ZM-21.5-67.455a4.025 4.025 0 0 1 .988-2.419c.724-.837 1.717-1.316 2.725-1.316.137 0 .274.009.409.027l6.299 16.247a3.881 3.881 0 0 0-1.095 1.304c-.07.14-.132.282-.183.426L-21.5-67.455Zm45.235 17.449a4.115 4.115 0 0 0-1.108-.597l10.05-15.69c1.04.127 1.999.778 2.591 1.769.568.95.723 2.067.429 3.078l-11.962 11.44Zm-49.339-11.437c-.301-1.01-.148-2.128.425-3.08.595-.992 1.553-1.643 2.591-1.77l10.054 15.689a4.048 4.048 0 0 0-1.112.598l-11.958-11.437Zm-3.341 6.506c-.478-.987-.477-2.202.008-3.269.477-1.04 1.356-1.787 2.372-2.026l11.89 11.367a1.44 1.44 0 0 0-.099.163 3.678 3.678 0 0 0-.414 1.707l.001.024-13.758-7.966Zm54.221 7.94c0-.596-.138-1.169-.41-1.705a1.425 1.425 0 0 0-.099-.162l11.885-11.368c1.017.233 1.895.98 2.37 2.026.486 1.059.49 2.273.015 3.27l-13.762 7.969.001-.03m.103 3.392a3.902 3.902 0 0 0-.757-1.217l15.238-8.82c.83.408 1.472 1.187 1.775 2.158.353 1.135.19 2.355-.436 3.289l-15.82 4.59Zm-56.489-4.59c-.625-.935-.787-2.155-.433-3.288.3-.972.942-1.75 1.773-2.159l15.239 8.822a3.819 3.819 0 0 0-.759 1.215l-15.82-4.59Zm56.266 7.842a3.707 3.707 0 0 0 .5-1.744l15.702-4.558c.745.612 1.189 1.628 1.198 2.753.002 1.038-.372 2.031-1.031 2.741l-16.369.808Zm-56.588-.802c-.663-.719-1.038-1.713-1.032-2.748.002-1.116.446-2.132 1.195-2.751l15.696 4.591c.028.604.202 1.189.504 1.71l-16.363-.802Zm56.884 4.173a3.688 3.688 0 0 0-.524-1.837l16.65-.813c.541.693.781 1.646.66 2.64-.144 1.171-.759 2.217-1.656 2.822l-15.13-2.812Zm-55.945 2.812c-.894-.604-1.509-1.65-1.656-2.823-.121-.992.121-1.945.666-2.639l16.643.813a3.698 3.698 0 0 0-.526 1.836l-15.127 2.813Zm2.059 5.947c-.878-.391-1.574-1.258-1.833-2.294-.192-.779-.106-1.551.242-2.188l14.951-2.778c.216.521.549.992.969 1.375l-14.329 5.885Zm52.628-5.885c.422-.384.755-.857.97-1.38l14.955 2.789c.345.633.43 1.402.238 2.183-.258 1.038-.958 1.905-1.839 2.294l-14.324-5.886Zm-.193 3.793a3.675 3.675 0 0 0 .291-2.1l13.275 5.449c.263.708.196 1.554-.189 2.341-.406.828-1.121 1.482-1.931 1.77l-11.446-7.46Zm-49.357 7.461c-.81-.289-1.524-.94-1.931-1.766-.387-.79-.455-1.636-.193-2.343l13.281-5.453a3.613 3.613 0 0 0-.043.56 3.591 3.591 0 0 0 .338 1.554l-11.452 7.448Zm3.729 4.478c-.907-.146-1.767-.716-2.322-1.548a3.199 3.199 0 0 1-.57-1.641l11.529-7.505c.45.413.985.716 1.57.889a1.75 1.75 0 0 0-.021.093l-10.186 9.712Zm43.157-9.715-.02-.091a4.04 4.04 0 0 0 1.569-.889l11.529 7.502a3.202 3.202 0 0 1-.565 1.645c-.563.833-1.423 1.403-2.326 1.548L21.53-28.091ZM-17.247-14.93c-.871-.029-1.738-.413-2.397-1.062a3.293 3.293 0 0 1-.854-1.334l9.167-8.736c.145.429.369.835.659 1.193.056.067.115.126.176.182l-6.751 9.757Zm37.832-9.756c.061-.057.119-.117.174-.183.292-.357.516-.762.663-1.193l9.166 8.737a3.29 3.29 0 0 1-.849 1.331c-.662.651-1.532 1.035-2.404 1.064l-6.75-9.756Zm2.223 12.562c-.168 0-.333-.012-.494-.038l-5.03-11.207-.013-.023.007-.044c.128.012.251.019.37.019.565 0 1.139-.131 1.678-.38l6.728 9.724a3.453 3.453 0 0 1-1.08 1.237 3.767 3.767 0 0 1-2.166.712m-35.528.001a3.753 3.753 0 0 1-2.164-.714 3.45 3.45 0 0 1-1.079-1.236l6.727-9.723a4.025 4.025 0 0 0 1.674.379c.129 0 .252-.006.372-.017a.634.634 0 0 0 .007.046l-5.037 11.226c-.162.026-.33.039-.5.039m4.418 2.091c-.438 0-.889-.092-1.302-.265-.551-.23-1.005-.592-1.297-1.03l4.575-10.195a3.795 3.795 0 0 0 1.366 1.028l-2.181 10.226a2.83 2.83 0 0 1-1.161.236m26.693 0c-.419 0-.818-.081-1.162-.236l-2.18-10.227a3.77 3.77 0 0 0 1.365-1.024l4.579 10.192c-.292.438-.747.8-1.295 1.029a3.423 3.423 0 0 1-1.307.266m-21.824.685c-.09 0-.182-.002-.275-.01-.754-.06-1.422-.368-1.856-.85l2.119-9.936c.047.003.093.006.141.006.644 0 1.3-.164 1.898-.468l-.49 10.886a3.299 3.299 0 0 1-1.537.372m16.954 0a3.26 3.26 0 0 1-1.537-.372l-.49-10.884a4.154 4.154 0 0 0 1.897.466c.049 0 .097-.003.145-.007l2.119 9.942c-.434.479-1.102.785-1.859.845-.092.008-.184.01-.275.01M4.141 9.429l-.062-3.558a.769.769 0 0 0-.387-.645c-.885-.491-1.411-1.353-1.411-2.308 0-.931.496-1.781 1.328-2.276a.754.754 0 0 0 .376-.666c-.106-6.006-.226-10.774-.462-14.517-.13-2.105-.289-3.725-.482-4.952-.241-1.432-.449-2.259-.916-2.818-.542-.607-1.161-.925-1.796-.925-.866.017-1.45.533-1.8.842-.529.483-1.17.736-1.833.736a2.402 2.402 0 0 1-1.668-.663 2.27 2.27 0 0 1-.694-1.96.745.745 0 0 0-.296-.697.816.816 0 0 0-.477-.157.78.78 0 0 0-.268.048 2.655 2.655 0 0 1-.855.147 2.464 2.464 0 0 1-1.899-.882 2.275 2.275 0 0 1-.521-1.454c0-.396.103-.786.299-1.129a.767.767 0 0 0-.005-.755.771.771 0 0 0-.657-.38c-.877-.029-1.675-.508-2.074-1.249a2.188 2.188 0 0 1-.272-1.067c0-.605.251-1.202.688-1.64a.758.758 0 0 0 .208-.697.774.774 0 0 0-.474-.543c-.943-.364-1.548-1.22-1.544-2.18 0-.791.411-1.521 1.097-1.963a.752.752 0 0 0-.045-1.303c-.788-.429-1.259-1.193-1.259-2.046.005-.765.381-1.458 1.031-1.904a.755.755 0 0 0 .331-.563.77.77 0 0 0-.238-.609 2.337 2.337 0 0 1-.741-1.691c.003-.363.086-.707.246-1.017.411-.802 1.251-1.299 2.197-1.299a.782.782 0 0 0 .686-.411.743.743 0 0 0-.066-.805 2.383 2.383 0 0 1-.459-1.379c0-.354.083-.697.247-1.019a2.426 2.426 0 0 1 1.814-1.278.774.774 0 0 0 .516-.31.737.737 0 0 0 .135-.562.758.758 0 0 0-.887-.634 3.865 3.865 0 0 0-.48.102l-6.323-16.32c.222-1.114.98-2.141 2.042-2.761a4.218 4.218 0 0 1 2.115-.595c.63 0 1.22.159 1.714.459l.162.997C-8.955-67.519-6.56-52.75-6.06-50.455c.075.328.112.617.112.862-.003.597-.22.942-.696 1.697l-.133.212c-.683 1.094-1.414 2.433-2.146 4.807-.408 1.326-.615 2.79-.615 4.354.015 5.181 2.139 10.107 5.285 12.259 1.256.843 2.37 1.252 3.408 1.252 1.174 0 2.194-.587 2.82-1.61.567-.914.855-2.137.855-3.634 0-.148 0-.292-.006-.446-.038-.988-.05-2.358-.064-3.944-.014-1.598-.03-3.409-.077-5.143-.091-2.935-.224-5.925-.744-7.484l.005-.025-.054-.139a3.818 3.818 0 0 0-.092-.213v-.047l-.036-.038c-.589-1.097-1.73-1.906-3.482-2.47a13.973 13.973 0 0 1 .116-2.944c1.253-1.412 3.834-2.321 6.613-2.321h.077c1.662 0 3.31.339 4.641.954.067.045.146.08.234.104.714.355 1.309.788 1.727 1.257.099.692.151 1.402.151 2.06 0 .273-.012.572-.034.89-1.752.565-2.891 1.377-3.479 2.475l-.016.031-.009.033a2.116 2.116 0 0 0-.116.256.441.441 0 0 0-.028.124c-.479 1.38-.643 3.896-.751 7.496a268.59 268.59 0 0 0-.076 5.154c-.014 1.583-.025 2.95-.063 3.939-.006.146-.01.293-.01.435 0 1.502.289 2.728.858 3.643.625 1.02 1.649 1.607 2.807 1.607 1.046-.004 2.188-.425 3.414-1.252 3.152-2.153 5.276-7.079 5.288-12.258 0-1.561-.207-3.026-.614-4.354-.719-2.347-1.457-3.698-2.147-4.807l-.147-.235c-.466-.744-.678-1.084-.678-1.675 0-.229.035-.51.108-.861.529-2.414 3.186-18.838 4.059-24.236l.022-.134a3.286 3.286 0 0 1 1.714-.459c.717 0 1.448.206 2.113.595 1.059.613 1.82 1.64 2.049 2.76l-6.327 16.321a3.973 3.973 0 0 0-.482-.105.768.768 0 0 0-.887.641.76.76 0 0 0 .661.866 2.444 2.444 0 0 1 1.808 1.281c.163.32.246.662.246 1.015 0 .486-.166.977-.467 1.383l-.062.084v.05c-.066.164-.093.289-.085.395l-.011.017.051.147a.784.784 0 0 0 .633.514l.093.008c.007 0 .043 0 .092-.006a2.425 2.425 0 0 1 2.107 1.304c.168.315.251.655.251 1.016a2.31 2.31 0 0 1-.74 1.684.751.751 0 0 0-.235.618.746.746 0 0 0 .326.56c.642.441 1.017 1.119 1.034 1.865l-.001.042c0 .839-.481 1.622-1.255 2.043a.747.747 0 0 0-.403.643.746.746 0 0 0 .358.666 2.334 2.334 0 0 1 1.095 1.951v.008c0 .964-.604 1.819-1.542 2.177a.765.765 0 0 0-.475.55.757.757 0 0 0 .202.69c.447.446.69 1.028.69 1.644 0 .379-.09.738-.266 1.069-.4.733-1.2 1.212-2.088 1.247a.76.76 0 0 0-.655 1.13c.199.344.302.733.302 1.134 0 .532-.179 1.034-.521 1.451a2.446 2.446 0 0 1-1.902.878c-.293 0-.584-.047-.863-.143a.774.774 0 0 0-.734.116.755.755 0 0 0-.3.686c.015.108.02.208.02.304 0 .641-.251 1.231-.709 1.661a2.408 2.408 0 0 1-1.671.665 2.677 2.677 0 0 1-1.805-.711c-.383-.339-.967-.855-1.824-.866-.639-.001-1.258.317-1.793.917-.473.566-.687 1.428-.919 2.821-.622 3.948-.808 11.78-.944 19.465a.761.761 0 0 0 .375.67c.842.494 1.343 1.346 1.343 2.28 0 .949-.541 1.835-1.413 2.31a.763.763 0 0 0-.399.656l-.058 3.545H4.141Z" style="fill:#fff;fill-rule:nonzero" transform="translate(40.735 95.493) scale(1.06374)"/><path d="M0 6.551c0 6.047-3.996 9.935-10.835 9.935-6.803 0-10.835-3.888-10.835-9.935V-9.935h5.544V6.011c0 3.384 1.907 5.399 5.291 5.399 3.42 0 5.291-2.015 5.291-5.399V-9.935H0V6.551Z" style="fill:#fff;fill-rule:nonzero" transform="translate(131.108 30.922) scale(1.06374)"/><path d="m0 26.709-14.219-13.643-1.691-1.475v14.722h-5.436V0h.216l14.183 13.643 1.655 1.475V.396H.18v26.313H0Z" style="fill:#fff;fill-rule:nonzero" transform="translate(159.982 19.933) scale(1.06374)"/><path style="fill:#fff" d="M196.666 77.275h5.543v25.917h-5.543z" transform="translate(-42.478 -61.847) scale(1.06374)"/><path d="M0 26.313h-.216L-12.994 0h6.047l3.384 7.487c1.332 2.988 2.519 5.544 3.419 8.063a326.017 326.017 0 0 1 3.492-8.063L6.731 0h6.011L0 26.313Z" style="fill:#fff;fill-rule:nonzero" transform="translate(189.508 20.354) scale(1.06374)"/><path d="M0 25.917V0h16.666v4.644H5.543v5.903h9.432v4.464H5.543v6.262h11.663v4.644H0Z" style="fill:#fff;fill-rule:nonzero" transform="translate(206.167 20.354) scale(1.06374)"/><path d="M0-16.629v7.739h3.959c2.448 0 4.14-1.223 4.14-3.851 0-2.592-1.764-3.888-4.284-3.888H0Zm3.671-4.644c6.012 0 10.007 2.989 10.007 8.532 0 3.779-2.123 6.263-4.931 7.379l5.435 10.006H8.314l-4.571-9.07H0v9.07h-5.436v-25.917h9.107Z" style="fill:#fff;fill-rule:nonzero" transform="translate(235.04 42.982) scale(1.06374)"/><path d="M0 23.973v-5.327c1.8.935 4.175 1.727 6.515 1.872.828.035 1.62 0 2.303-.145 1.98-.288 3.132-1.044 3.132-2.303 0-1.728-1.548-2.628-5.111-3.924C2.304 12.491-.36 10.582-.36 6.083c0-4.607 3.815-7.559 9.394-7.559 2.592 0 5.148.576 6.768 1.296v5.111c-1.512-.899-3.96-1.583-6.335-1.583-2.664 0-4.392 1.044-4.392 2.699 0 1.512 1.404 2.556 4.932 3.888 4.535 1.764 7.343 3.672 7.343 8.027 0 4.679-3.528 7.487-9.647 7.487-2.952 0-5.832-.648-7.703-1.476" style="fill:#fff;fill-rule:nonzero" transform="translate(253.576 21.388) scale(1.06374)"/><path style="fill:#fff" d="M299.983 77.275h5.543v25.917h-5.543z" transform="translate(-42.478 -61.847) scale(1.06374)"/><path d="M0-16.629V4.644h-5.544v-21.273h-7.234v-4.644H7.271v4.644H0Z" style="fill:#fff;fill-rule:nonzero" transform="translate(300.063 42.982) scale(1.06374)"/><path d="m0-25.917 5.939 10.619 5.94-10.619h6.263L8.711-10.043V0H3.168v-10.043l-9.396-15.874H0Z" style="fill:#fff;fill-rule:nonzero" transform="translate(314.5 47.923) scale(1.06374)"/><path d="M0 16.775c4.68 0 7.991-3.743 7.991-8.387C7.991 3.781 4.68.002 0 .002c-4.679 0-7.99 3.779-7.99 8.386 0 4.644 3.311 8.387 7.99 8.387m0-21.85c7.812 0 13.57 5.976 13.57 13.463C13.57 15.947 7.848 21.85 0 21.85c-7.847 0-13.569-5.903-13.569-13.462C-13.569.937-7.847-5.075 0-5.075" style="fill:#fff;fill-rule:nonzero" transform="translate(121.114 62.289) scale(1.06374)"/><path d="M0-16.629v6.191h8.64v4.572H0v10.51h-5.543v-25.917h15.802v4.644H0Z" style="fill:#fff;fill-rule:nonzero" transform="translate(146.274 80.055) scale(1.06374)"/><path d="M0-16.629V4.644h-5.544v-21.273h-7.234v-4.644H7.271v4.644H0Z" style="fill:#fff;fill-rule:nonzero" transform="translate(180.126 80.055) scale(1.06374)"/><path d="M0 6.551c0 6.047-3.996 9.935-10.835 9.935-6.803 0-10.835-3.888-10.835-9.935V-9.935h5.544V6.011c0 3.384 1.907 5.399 5.291 5.399 3.42 0 5.291-2.015 5.291-5.399V-9.935H0V6.551Z" style="fill:#fff;fill-rule:nonzero" transform="translate(214.474 67.995) scale(1.06374)"/><path d="M0-16.629v7.739h3.959c2.448 0 4.14-1.223 4.14-3.851 0-2.592-1.764-3.888-4.284-3.888H0Zm3.671-4.644c6.012 0 10.007 2.989 10.007 8.532 0 3.779-2.123 6.263-4.931 7.379l5.435 10.006H8.314l-4.571-9.07H0v9.07h-5.436v-25.917h9.107Z" style="fill:#fff;fill-rule:nonzero" transform="translate(226.423 80.055) scale(1.06374)"/><path d="m0-1.439 10.079-12.239h6.551L7.451-2.843l9.323 15.082h-6.191L3.708.72 0 4.932v7.307h-5.543v-25.917H0v12.239Z" style="fill:#fff;fill-rule:nonzero" transform="translate(252.118 71.977) scale(1.06374)"/><path d="M0 6.551c0 6.047-3.996 9.935-10.835 9.935-6.803 0-10.835-3.888-10.835-9.935V-9.935h5.544V6.011c0 3.384 1.907 5.399 5.291 5.399 3.42 0 5.291-2.015 5.291-5.399V-9.935H0V6.551Z" style="fill:#fff;fill-rule:nonzero" transform="translate(296.079 67.995) scale(1.06374)"/></svg>